<svg width="45" height="45" viewBox="0 0 45 45" fill="none" xmlns="http://www.w3.org/2000/svg">
<path d="M7.78027 13.9054C7.56616 13.9255 7.36735 14.025 7.22294 14.1843C7.07853 14.3435 6.99896 14.551 6.99989 14.7659V30.2556C6.99992 30.4838 7.09065 30.7027 7.25213 30.864C7.41362 31.0254 7.63263 31.1161 7.861 31.1161H37.1389C37.3673 31.1161 37.5863 31.0254 37.7478 30.864C37.9092 30.7027 38 30.4838 38 30.2556V14.7659C38 14.5377 37.9093 14.3188 37.7478 14.1574C37.5863 13.9961 37.3673 13.9054 37.1389 13.9054H7.861C7.83411 13.9041 7.80717 13.9041 7.78027 13.9054ZM8.72212 15.6264H17.3602C15.26 17.1973 13.8888 19.6949 13.8888 22.5107C13.8888 25.3265 15.26 27.8242 17.3602 29.395H8.72212V15.6264ZM22.4999 15.6264C26.3148 15.6264 29.3889 18.6984 29.3889 22.5107C29.3889 26.323 26.3148 29.395 22.4999 29.395C18.6851 29.395 15.611 26.323 15.611 22.5107C15.611 18.6984 18.6851 15.6264 22.4999 15.6264ZM27.6397 15.6264H36.2778V29.395H27.6397C29.7399 27.8242 31.1111 25.3265 31.1111 22.5107C31.1111 19.6949 29.7399 17.1973 27.6397 15.6264Z" fill="#700044"/>
<path d="M29.2754 5.46729C29.4049 5.36526 29.561 5.30254 29.7252 5.28657C29.8535 5.2741 29.983 5.29058 30.1041 5.33479C30.2252 5.37901 30.3348 5.44983 30.4248 5.54203L33.0082 8.12364C33.0891 8.20367 33.1534 8.29897 33.1972 8.40399C33.2411 8.509 33.2637 8.62166 33.2637 8.73545C33.2637 8.84924 33.2411 8.96189 33.1972 9.0669C33.1534 9.17192 33.0891 9.26719 33.0082 9.34722L30.4248 11.9288C30.345 12.0109 30.2496 12.0762 30.1442 12.121C30.0388 12.1657 29.9256 12.189 29.8111 12.1895C29.6965 12.19 29.5831 12.1677 29.4773 12.1238C29.3715 12.0799 29.2756 12.0155 29.1951 11.9341C29.1145 11.8527 29.0511 11.7561 29.0083 11.6499C28.9656 11.5438 28.9445 11.4301 28.9463 11.3157C28.948 11.2013 28.9726 11.0884 29.0186 10.9835C29.0645 10.8787 29.1309 10.7841 29.2139 10.7053L30.3307 9.60271H12.5971C12.4839 9.60822 12.3707 9.59135 12.264 9.55309C12.1573 9.51484 12.0593 9.45593 11.9754 9.37976C11.8915 9.30358 11.8235 9.21164 11.7752 9.10916C11.7269 9.00669 11.6994 8.8957 11.6941 8.78256C11.6888 8.66943 11.7058 8.55636 11.7443 8.44982C11.7828 8.34328 11.8419 8.24538 11.9183 8.16169C11.9946 8.07801 12.0868 8.01021 12.1894 7.96216C12.292 7.9141 12.4031 7.88674 12.5164 7.88164C12.5432 7.88038 12.5702 7.88038 12.5971 7.88164H30.3307L29.2139 6.76561C29.0946 6.65181 29.0105 6.50618 28.9717 6.34602C28.9328 6.18586 28.9408 6.01791 28.9946 5.86214C29.0485 5.70637 29.1459 5.56932 29.2754 5.46729Z" fill="#EE4FAF"/>
<path d="M14.575 33.0792C14.7078 32.9411 14.883 32.8511 15.0728 32.8237C15.2541 32.7975 15.4391 32.8297 15.6008 32.9157C15.7626 33.0017 15.8926 33.137 15.9722 33.3019C16.0517 33.4669 16.0765 33.6528 16.043 33.8328C16.0095 34.0128 15.9194 34.1774 15.7859 34.3028L14.6691 35.4188H32.4027C32.5168 35.4172 32.6302 35.4382 32.7361 35.4807C32.842 35.5232 32.9384 35.5863 33.0197 35.6664C33.101 35.7465 33.1655 35.8419 33.2096 35.9471C33.2536 36.0523 33.2763 36.1653 33.2763 36.2793C33.2763 36.3934 33.2536 36.5063 33.2096 36.6116C33.1655 36.7168 33.101 36.8122 33.0197 36.8923C32.9384 36.9723 32.842 37.0355 32.7361 37.078C32.6302 37.1205 32.5168 37.1415 32.4027 37.1399H14.6691L15.7859 38.2424C15.8689 38.3213 15.9354 38.4159 15.9814 38.5207C16.0274 38.6256 16.052 38.7385 16.0537 38.853C16.0555 38.9674 16.0344 39.0811 15.9917 39.1873C15.949 39.2935 15.8855 39.3901 15.805 39.4715C15.7244 39.5529 15.6284 39.6174 15.5226 39.6613C15.4168 39.7051 15.3033 39.7274 15.1888 39.7269C15.0743 39.7264 14.961 39.7031 14.8556 39.6583C14.7502 39.6135 14.6548 39.5481 14.575 39.466L11.9916 36.8844C11.9107 36.8044 11.8464 36.7091 11.8025 36.6041C11.7587 36.4991 11.7361 36.3864 11.7361 36.2726C11.7361 36.1588 11.7587 36.0461 11.8025 35.9411C11.8464 35.8361 11.9107 35.7409 11.9916 35.6608L14.575 33.0792Z" fill="#EE4FAF"/>
<path d="M22.4306 17.0023C22.2166 17.0258 22.0192 17.1285 21.8772 17.2903C21.7352 17.4521 21.6591 17.6611 21.6637 17.8762V18.3469C20.4077 18.5579 19.5109 19.6714 19.5109 20.8881C19.5109 22.3548 20.8861 23.4697 22.5248 23.4697C23.4847 23.4697 23.8165 23.89 23.8165 24.3302C23.8165 24.8856 23.5995 25.1908 22.9554 25.1908H20.372C20.258 25.1894 20.1449 25.2106 20.0391 25.2532C19.9334 25.2958 19.8372 25.3589 19.7561 25.439C19.675 25.519 19.6106 25.6144 19.5666 25.7195C19.5226 25.8246 19.5 25.9374 19.5 26.0514C19.5 26.1653 19.5226 26.2781 19.5666 26.3832C19.6106 26.4883 19.675 26.5837 19.7561 26.6637C19.8372 26.7438 19.9334 26.8069 20.0391 26.8495C20.1449 26.8922 20.258 26.9133 20.372 26.9119H21.6637V27.3422C21.6621 27.4562 21.6832 27.5694 21.7257 27.6752C21.7683 27.7811 21.8314 27.8774 21.9116 27.9586C21.9917 28.0398 22.0872 28.1043 22.1924 28.1483C22.2977 28.1923 22.4107 28.215 22.5248 28.215C22.6389 28.215 22.7519 28.1923 22.8572 28.1483C22.9625 28.1043 23.0579 28.0398 23.1381 27.9586C23.2182 27.8774 23.2814 27.7811 23.3239 27.6752C23.3665 27.5694 23.3875 27.4562 23.3859 27.3422V26.8716C24.6412 26.66 25.5387 25.5466 25.5387 24.3302C25.5387 22.8636 24.1635 21.7486 22.5248 21.7487C21.5649 21.7487 21.2331 21.3284 21.2331 20.8881C21.2331 20.3328 21.4501 20.0276 22.0943 20.0276H24.6776C24.7917 20.0292 24.905 20.0081 25.0109 19.9656C25.1168 19.9231 25.2132 19.86 25.2945 19.7799C25.3757 19.6998 25.4403 19.6044 25.4843 19.4992C25.5284 19.394 25.5511 19.2811 25.5511 19.1671C25.5511 19.053 25.5284 18.9401 25.4843 18.8349C25.4403 18.7296 25.3757 18.6342 25.2945 18.5542C25.2132 18.4741 25.1168 18.411 25.0109 18.3685C24.905 18.3259 24.7917 18.3049 24.6776 18.3065H23.3859V17.8762C23.3886 17.7537 23.365 17.6321 23.3168 17.5194C23.2686 17.4067 23.1969 17.3057 23.1065 17.2229C23.016 17.1402 22.7924 17.0396 22.7924 17.0396C22.7924 17.0396 22.5525 16.9888 22.4306 17.0023Z" fill="#EE4FAF"/>
</svg>
