<svg width="45" height="45" viewBox="0 0 45 45" fill="none" xmlns="http://www.w3.org/2000/svg">
<path d="M22.4672 5.75032C22.327 5.75697 22.1991 5.81121 22.0625 5.89248L7.01252 17.7925C6.77876 17.9697 6.67553 18.303 6.77189 18.58C6.86825 18.8571 7.15677 19.0564 7.45002 19.0503H10.6V33.0503H7.45002C7.07021 33.0503 6.75862 33.435 6.75002 33.7503V36.5503C6.75005 36.9168 7.08351 37.2503 7.45002 37.2503H37.55C37.9165 37.2503 38.25 36.9168 38.25 36.5503V33.7503C38.25 33.3838 37.9165 33.0504 37.55 33.0503H35.1V19.0503H37.55C37.8433 19.0563 38.1318 18.8571 38.2281 18.58C38.3245 18.303 38.2213 17.9697 37.9875 17.7925L22.9375 5.89248C22.7599 5.78475 22.6074 5.7437 22.4672 5.75032ZM22.5 7.34719L35.5375 17.6503H9.4625L22.5 7.34719ZM12 19.0503H13.4V33.0503H12V19.0503ZM14.8 19.0503H30.9V33.0503H14.8V19.0503ZM32.3 19.0503H33.7V33.0503H32.3V19.0503ZM8.15002 34.4503H36.85V35.8503H8.15002V34.4503Z" fill="#700044"/>
<path d="M21.8656 20.7C21.8656 20.3134 22.1793 20 22.5656 20C22.9519 20 23.2656 20.3134 23.2656 20.7V21.2031C24.1816 21.4653 24.8498 22.1681 25.2016 22.8766C25.4054 23.2062 25.273 23.6982 24.9281 23.8719C24.5832 24.0456 24.1052 23.862 23.9656 23.5C23.7143 22.9938 23.1603 22.4938 22.5 22.4938C21.6489 22.4938 21.1109 22.9577 21.1109 23.8938C21.1169 24.6439 21.9734 25.0154 22.7953 25.3594C23.2576 25.58 23.816 25.7525 24.3375 26.1359C24.859 26.5193 25.2781 27.2162 25.2781 28.0938C25.2781 29.4174 24.4084 30.4571 23.2656 30.7844V31.2C23.2656 31.5866 22.9519 31.9 22.5656 31.9C22.1793 31.9 21.8656 31.5866 21.8656 31.2V30.8172C20.8801 30.5861 20.1673 29.8429 19.7984 29.1C19.5946 28.7704 19.7379 28.2784 20.0828 28.1047C20.4277 27.931 20.8948 28.1145 21.0344 28.4766C21.2857 28.9828 21.8397 29.4938 22.5 29.4938C23.351 29.4938 23.8891 29.0298 23.8891 28.0938C23.883 27.3339 23.0309 26.9618 22.2047 26.6172C21.7424 26.3965 21.1949 26.224 20.6734 25.8406C20.1519 25.4573 19.7219 24.7714 19.7219 23.8938C19.7219 22.5186 20.657 21.4519 21.8656 21.1703V20.7Z" fill="#EE4FAF"/>
<path d="M20.05 13.4503C20.05 12.1055 21.1552 11.0003 22.5 11.0003C23.8449 11.0003 24.95 12.1055 24.95 13.4503C24.95 14.7951 23.8449 15.9003 22.5 15.9003C21.1552 15.9003 20.05 14.7951 20.05 13.4503Z" fill="#EE4FAF"/>
<path d="M23.5501 13.4503C23.5501 12.8621 23.0883 12.4003 22.5001 12.4003C21.9119 12.4003 21.4501 12.8621 21.4501 13.4503C21.4501 14.0385 21.9119 14.5003 22.5001 14.5003C23.0883 14.5003 23.5501 14.0385 23.5501 13.4503Z" fill="#F2F2F2"/>
</svg>
