<svg width="45" height="45" viewBox="0 0 45 45" fill="none" xmlns="http://www.w3.org/2000/svg">
<path d="M5.31141 29.503L6.91967 28.0473L15.1645 35.5056L13.6736 36.8595C13.5566 36.9658 13.4745 37.1052 13.4382 37.2591C13.402 37.413 13.4132 37.5743 13.4703 37.7217C13.5275 37.8691 13.628 37.9957 13.7586 38.0849C13.8892 38.1741 14.0437 38.2216 14.2019 38.2212C14.3958 38.2207 14.5827 38.1482 14.7262 38.0178L16.8588 36.0886C16.9397 36.0147 17.0041 35.9245 17.0479 35.8241C17.0917 35.7237 17.1139 35.6152 17.1132 35.5056C17.1129 35.3964 17.0898 35.2884 17.0453 35.1887C17.0008 35.0889 16.936 34.9996 16.8549 34.9264L7.44402 26.4117C7.29998 26.2808 7.11234 26.2083 6.91771 26.2083C6.72309 26.2083 6.53545 26.2808 6.39141 26.4117L4.26271 28.3447C4.10704 28.4838 4.01299 28.679 4.00125 28.8874C3.98951 29.0958 4.06104 29.3003 4.2001 29.456C4.33917 29.6117 4.53438 29.7057 4.74279 29.7175C4.9512 29.7292 5.15574 29.6577 5.31141 29.5186V29.503Z" fill="#700044"/>
<path d="M8.74695 26.8264C8.93384 26.9151 9.14825 26.9263 9.34329 26.8573C9.53834 26.7884 9.69817 26.645 9.78783 26.4586C9.78783 26.4273 11.353 23.2734 14.5617 22.1543C16.5731 21.4617 18.827 21.7199 21.2609 22.9369C21.3547 22.9802 21.4553 23.0067 21.5583 23.0151L27.2361 23.3673H27.2831C27.4495 23.3436 27.6192 23.3559 27.7805 23.4034C27.9418 23.451 28.091 23.5326 28.218 23.6428C28.345 23.753 28.4468 23.8892 28.5167 24.0422C28.5865 24.1951 28.6226 24.3613 28.6226 24.5295C28.6226 24.6976 28.5865 24.8638 28.5167 25.0168C28.4468 25.1698 28.345 25.306 28.218 25.4162C28.091 25.5264 27.9418 25.608 27.7805 25.6555C27.6192 25.7031 27.4495 25.7154 27.2831 25.6917H22.3957C22.2929 25.6917 22.1911 25.7119 22.0962 25.7512C22.0012 25.7906 21.915 25.8482 21.8423 25.9209C21.7696 25.9936 21.712 26.0798 21.6726 26.1748C21.6333 26.2697 21.6131 26.3715 21.6131 26.4743C21.6131 26.577 21.6333 26.6788 21.6726 26.7738C21.712 26.8687 21.7696 26.955 21.8423 27.0277C21.915 27.1003 22.0012 27.158 22.0962 27.1973C22.1911 27.2366 22.2929 27.2569 22.3957 27.2569H27.287C28.0165 27.2598 28.723 27.0016 29.2787 26.5291L37.1909 22.4477H37.23C37.365 22.356 37.5275 22.3137 37.6901 22.328C37.8526 22.3422 38.0053 22.4122 38.1222 22.526C38.28 22.686 38.3839 22.8911 38.4196 23.113C38.4582 23.3296 38.4383 23.5526 38.3619 23.7589C38.2856 23.9653 38.1555 24.1475 37.9853 24.2869L27.8113 31.3304C26.8336 32.028 25.6666 32.4115 24.4657 32.4299L16.9565 32.0738C16.749 32.064 16.546 32.137 16.3923 32.2768C16.2385 32.4166 16.1466 32.6117 16.1367 32.8193C16.1269 33.0268 16.1999 33.2298 16.3397 33.3836C16.4795 33.5373 16.6746 33.6292 16.8822 33.6391L24.4265 33.9912C25.9582 33.9761 27.4484 33.4913 28.6957 32.6021L38.8696 25.5586C39.2898 25.2458 39.614 24.8216 39.8056 24.3341C39.9971 23.8465 40.0484 23.3151 39.9535 22.7999C39.8603 22.2674 39.6047 21.7768 39.2218 21.3951C38.8653 21.0364 38.398 20.8086 37.8958 20.749C37.3935 20.6893 36.8859 20.8012 36.4552 21.0664L30.2218 24.2869C30.1328 23.5834 29.7856 22.938 29.2477 22.476C28.7097 22.014 28.0193 21.7682 27.3105 21.7864L21.8126 21.4421C19.0422 20.1117 16.4322 19.8495 14.053 20.6595C10.2339 21.9782 8.45348 25.6017 8.37913 25.7464C8.32896 25.8408 8.29866 25.9445 8.29011 26.0511C8.28155 26.1576 8.29492 26.2648 8.32938 26.366C8.36385 26.4672 8.41868 26.5603 8.4905 26.6395C8.56232 26.7187 8.6496 26.7823 8.74695 26.8264Z" fill="#700044"/>
<path d="M21.7589 7C19.9297 7 18.4722 8.33984 18.0979 10.3033V10.3036C18.0979 10.3036 18.0977 10.304 18.0977 10.3042C17.5368 13.216 19.3597 16.9741 24.3747 18.9759C24.4692 19.0138 24.5731 19.0358 24.6786 19.0358C24.784 19.0358 24.8879 19.0135 24.9824 18.9759C24.9859 18.9746 24.9868 18.9744 24.9877 18.9739L24.985 18.9748C29.9881 16.9291 31.7993 13.1832 31.2374 10.292C31.2365 10.2887 31.2363 10.2883 31.2363 10.2878L31.2369 10.2904C30.851 8.34969 29.404 7.02188 27.5764 7.02188C26.6246 7.02188 25.636 7.39463 24.6803 8.04584C23.7143 7.37516 22.721 7 21.7591 7H21.7589ZM21.7589 8.63866C22.4513 8.63866 23.2895 8.98056 24.1551 9.69172C24.1558 9.69238 24.1571 9.69347 24.1584 9.69434L24.159 9.69478C24.4568 9.933 24.889 9.933 25.1869 9.69478C26.0534 9.00375 26.8805 8.67125 27.5761 8.67125C28.5957 8.67125 29.3784 9.37825 29.6232 10.6102C30.0209 12.6564 28.7246 15.5398 24.6768 17.3108C20.6197 15.5706 19.3135 12.6783 19.7116 10.6096C19.7114 10.6116 19.7114 10.6109 19.7114 10.6107L19.7119 10.6085C19.9466 9.36687 20.7435 8.63866 21.7589 8.63866Z" fill="#EE4FAF"/>
</svg>
