<svg width="46" height="45" viewBox="0 0 46 45" fill="none" xmlns="http://www.w3.org/2000/svg">
<path d="M39.6512 30.4368H27.9269C26.3561 32.9013 24.6327 35.2668 22.7667 37.5197C20.9007 35.2668 19.1773 32.9013 17.6065 30.4368H5.88224L0.335205 44.8583H45.1982L39.6512 30.4368Z" fill="#FFC89F"/>
<path d="M22.7666 0.371826C19.5999 0.371928 16.5629 1.61942 14.3238 3.83989C12.0846 6.06035 10.8266 9.07192 10.8265 12.2121C10.7565 23.5088 22.7666 37.5198 22.7666 37.5198C22.7666 37.5198 34.7766 23.5088 34.7066 12.2121C34.7065 9.07192 33.4485 6.06035 31.2094 3.83989C28.9702 1.61942 25.9332 0.371928 22.7666 0.371826ZM22.7666 17.2359C21.7646 17.2359 20.7851 16.9412 19.952 16.3892C19.1189 15.8372 18.4696 15.0526 18.0861 14.1346C17.7027 13.2167 17.6023 12.2066 17.7978 11.2321C17.9933 10.2575 18.4758 9.3624 19.1843 8.65981C19.8928 7.95723 20.7955 7.47876 21.7782 7.28492C22.7609 7.09108 23.7796 7.19057 24.7053 7.5708C25.631 7.95104 26.4222 8.59494 26.9788 9.42109C27.5355 10.2472 27.8326 11.2185 27.8326 12.2121C27.8329 12.8719 27.702 13.5253 27.4475 14.1349C27.193 14.7446 26.8199 15.2985 26.3494 15.765C25.8789 16.2316 25.3203 16.6016 24.7056 16.854C24.0908 17.1064 23.4319 17.2361 22.7666 17.2359Z" fill="#AB2071"/>
<path d="M40.9393 33.7797L18.5521 41.6759L9.82739 30.437H17.6073C19.1777 32.9014 20.9008 35.2669 22.7667 37.5196C24.6326 35.2669 26.3557 32.9014 27.9261 30.437H39.6523L40.9393 33.7797Z" fill="#F948B4"/>
<path d="M9.53174 44.8583L31.6919 37.0416L37.7587 44.8583H9.53174Z" fill="#F7B081"/>
</svg>
