<svg width="56" height="43" viewBox="0 0 56 43" fill="none" xmlns="http://www.w3.org/2000/svg">
<path d="M9.8301 10.6788C1.77174 10.6788 2.66526 21.4902 2.70204 29.3248C2.70342 29.6207 2.8439 29.8874 3.07366 30.0403C3.96659 30.6341 6.41896 32.0226 9.8301 32.0226C13.2412 32.0226 15.6936 30.6341 16.5865 30.0403C16.8162 29.8874 16.9568 29.6207 16.9581 29.3248C16.9949 21.4902 17.8885 10.6788 9.8301 10.6788Z" fill="#694B4B"/>
<path d="M9.56728 10.6788C1.78339 11.1428 2.66596 21.6537 2.70325 29.322C2.70468 29.6182 2.85058 29.8853 3.08921 30.0382C4.01661 30.6327 6.56366 32.0226 10.1065 32.0226L12.2216 16.2791" fill="#5A4146"/>
<path d="M9.89974 10.6788C5.36218 10.6788 5.04712 16.787 5.04712 16.787C7.66254 16.2955 9.26962 17.5242 11.9165 16.2955L9.89974 32.0226C13.2779 32.0226 15.7064 30.6341 16.5907 30.0403C16.8181 29.8874 16.9573 29.6207 16.9587 29.3248C16.9951 21.4902 17.88 10.6788 9.89974 10.6788Z" fill="#694B4B"/>
<path d="M16.9672 29.7562C16.993 23.0778 17.532 14.2254 13.5012 11.8646C13.4309 12.3531 13.3035 13.717 13.6345 14.6022C14.4676 16.8311 15.3007 16.8311 16.1336 18.5026C16.9667 24.6317 14.542 31.137 13.7366 32.0227C15.1635 31.5687 16.1864 30.8503 16.6631 30.4659C16.851 30.3144 16.966 30.0498 16.9672 29.7562Z" fill="#785550"/>
<path d="M18.3573 31.2343L13.3362 29.3919C12.9169 29.2381 12.6436 28.8772 12.6436 28.4771V27.2795H7.01653V28.4771C7.01653 28.8772 6.74328 29.2381 6.32397 29.3919L1.3028 31.2343C0.673681 31.4652 0.263916 32.0065 0.263916 32.6066V34.5889C0.263916 35.1362 0.7678 35.5799 1.38933 35.5799H18.2707C18.8922 35.5799 19.3961 35.1362 19.3961 34.5889V32.6066C19.3962 32.0065 18.9865 31.4652 18.3573 31.2343Z" fill="#E6AF78"/>
<path d="M18.3573 31.375L13.5025 29.6512L9.83002 31.0019L6.15753 29.6513L1.3028 31.3751C0.673681 31.5984 0.263916 32.1222 0.263916 32.7029V34.621C0.263916 35.1507 0.7678 35.58 1.38933 35.58H18.2707C18.8922 35.58 19.3961 35.1507 19.3961 34.621V32.7029C19.3962 32.1222 18.9865 31.5984 18.3573 31.375Z" fill="#AB2071"/>
<path d="M12.2215 27.2795H7.48555V28.3343C7.48555 28.6868 7.25557 29.0046 6.90267 29.1401L6.24268 29.3936C11.2935 30.5804 12.2215 27.2795 12.2215 27.2795Z" fill="#D29B6E"/>
<path d="M19.2197 34.9047V32.6932C19.2197 32.2544 19.043 31.846 18.7473 31.5426L16.5022 33.3008C16.1055 33.6155 15.8745 34.0921 15.8745 34.596V36.0102H18.1047C18.7205 36.0104 19.2197 35.5153 19.2197 34.9047Z" fill="#E4EAF6"/>
<path d="M9.82523 34.9045H9.65796C9.39626 34.9045 9.18408 34.6941 9.18408 34.4345V30.733H10.2991V34.4344C10.2991 34.6941 10.0869 34.9045 9.82523 34.9045Z" fill="#F948B4"/>
<path d="M9.74186 30.732L6.55093 28.3589C6.34606 28.2066 6.05428 28.2561 5.91225 28.4673L5.28174 29.4052L7.23806 32.1211C7.38675 32.3276 7.67982 32.368 7.87964 32.2095L9.74186 30.732Z" fill="#F948B4"/>
<path d="M9.74182 30.732L12.9327 28.3589C13.1376 28.2066 13.4294 28.2561 13.5714 28.4673L14.2019 29.4052L12.2456 32.1211C12.0969 32.3276 11.8039 32.368 11.604 32.2095L9.74182 30.732Z" fill="#F948B4"/>
<path d="M13.1091 16.6077C10.3877 19.3566 5.04712 17.1573 5.04712 21.5556L5.38504 24.7954C5.45027 25.5202 5.86622 26.1654 6.4958 26.5188L9.59474 28.2578C10.0879 28.5346 10.6875 28.5346 11.1806 28.2578L14.2795 26.5188C14.9093 26.1654 15.3252 25.5201 15.3903 24.7954L15.7805 20.9476C15.8083 20.6741 15.8141 20.3989 15.805 20.1245C15.6015 18.725 13.6533 17.7071 13.1091 16.6077Z" fill="#FFC89F"/>
<path d="M5.04712 21.5588L5.38572 24.8005C5.45108 25.5257 5.86786 26.1713 6.49871 26.5249L9.60389 28.2649C9.94679 28.4571 10.34 28.5068 10.7144 28.4323C10.7144 28.4323 9.14885 27.9537 8.21702 25.4095C7.9316 24.6302 7.53531 20.5043 7.87622 20C8.55005 19.0034 12.3073 18.8998 13.4175 17.0508C13.3626 16.9822 13.312 16.9134 13.2657 16.8446C13.262 16.8391 13.2575 16.8335 13.2537 16.8278C13.2055 16.7547 13.1618 16.6813 13.1252 16.6077C10.3985 19.3585 5.04712 17.1579 5.04712 21.5588Z" fill="#F7B081"/>
<path d="M48.0946 28.8606V26.0938H39.7242V28.8606L43.9094 32.0227L48.0946 28.8606Z" fill="#E6AF78"/>
<path d="M53.9215 29.8788L48.5151 28.6695C48.4334 28.6513 48.3583 28.6203 48.2881 28.5827L43.9091 31.0111L39.701 28.4653C39.592 28.5628 39.4569 28.6353 39.3033 28.6696L33.8969 29.8789C33.1074 30.0555 32.5496 30.7252 32.5496 31.4962V34.7492C32.5496 35.2079 32.9408 35.58 33.4234 35.58H54.3952C54.8777 35.58 55.2691 35.208 55.2691 34.7492V31.4962C55.2688 30.7251 54.7109 30.0554 53.9215 29.8788Z" fill="#F948B4"/>
<path d="M39.7242 26.0938V29.2406C44.9965 30.9809 48.0946 26.6252 48.0946 26.6252V26.0938H39.7242Z" fill="#D29B6E"/>
<path d="M38.5284 15.4219L38.8892 23.5408C38.923 24.2993 39.2864 25.0026 39.88 25.4581L41.5915 26.7714C42.0214 27.1013 42.5443 27.2796 43.0816 27.2796H44.7372C45.2745 27.2796 45.7975 27.1012 46.2273 26.7714L47.9387 25.4581C48.5324 25.0026 48.8959 24.2992 48.9295 23.5408L49.2903 15.4219H38.5284Z" fill="#FFC89F"/>
<path d="M42.4356 17.1158C43.9984 17.1158 46.3427 16.6924 46.8988 15.4219H38.5284L38.8689 23.5408C38.9007 24.2993 39.2438 25.0026 39.8042 25.4581L41.4197 26.7714C41.8255 27.1013 42.3191 27.2796 42.8262 27.2796H43.6077C42.8262 27.2796 41.2634 25.5857 41.2634 23.4681C41.2634 22.4325 41.2634 19.6567 41.2634 18.3862C41.2634 17.9628 41.6541 17.1158 42.4356 17.1158Z" fill="#F7B081"/>
<path d="M44.5072 35.58H43.3114L43.4609 32.0226H44.3577L44.5072 35.58Z" fill="#5B5D6E"/>
<path d="M44.5072 30.8369H43.3114V31.0652C43.3114 31.5941 43.5708 32.0227 43.8907 32.0227H43.9278C44.2478 32.0227 44.507 31.594 44.507 31.0652V30.8369H44.5072Z" fill="#515262"/>
<path d="M39.8968 27.6258L43.8952 31.1942C43.8952 31.1942 42.7754 31.7547 41.3935 32.8846C41.1085 33.1177 40.6773 33.0232 40.5244 32.6898L38.6459 28.5916L39.2402 27.7077C39.3882 27.4875 39.6986 27.4488 39.8968 27.6258Z" fill="#AB2071"/>
<path d="M47.8936 27.6259L43.8953 31.1944C43.8953 31.1944 45.015 31.7548 46.3969 32.8847C46.6819 33.1178 47.1132 33.0233 47.266 32.6899L49.1446 28.5918L48.5503 27.7078C48.4023 27.4876 48.092 27.449 47.8936 27.6259Z" fill="#AB2071"/>
<path d="M46.8987 12.1556L47.2388 15.2597C48.7912 15.6608 49.0149 18.8073 49.0472 19.7062C49.053 19.8692 49.0933 20.0269 49.1618 20.164L49.7542 21.3507C49.7542 21.3507 49.5514 19.3887 50.4797 18.071C50.4796 18.071 50.7983 10.2815 46.8987 12.1556Z" fill="#785550"/>
<path d="M50.4498 21.3087L49.7982 23.3173C49.7209 23.5553 49.4435 23.7223 49.1253 23.7223C48.7755 23.7223 48.4805 23.5216 48.437 23.254L48.1039 21.1996C48.0148 20.6502 48.5706 20.165 49.2888 20.165H49.2912C50.0682 20.1649 50.6382 20.7277 50.4498 21.3087Z" fill="#F0C087"/>
<path d="M38.9392 11.8286L39.5258 12.2778C36.8737 14.4732 37.3693 18.2385 37.3693 18.2385C38.1625 19.1278 38.1625 21.3507 38.1625 21.3507L38.9557 20.4614C38.9557 20.4614 38.6496 17.8927 40.1455 16.9046C41.5335 15.9876 42.7481 16.4601 43.9874 16.4601C47.3087 16.4601 48.2382 15.0567 48.0772 13.3478C47.9938 12.4635 46.7878 10.6216 43.7148 10.6801C42.4745 10.7037 40.1455 11.1248 38.9392 11.8286Z" fill="#694B4B"/>
<path d="M38.7564 15.8305C38.7564 15.8305 38.3202 13.8838 39.6033 11.8646C36.8575 14.1599 37.3706 18.0967 37.3706 18.0967C38.1918 19.0265 38.1918 21.3507 38.1918 21.3507L39.0131 20.4209C39.0131 20.4209 38.6961 17.7352 40.2448 16.7021C41.6818 15.7433 42.9392 16.2373 44.2223 16.2373C44.7815 16.2373 45.2689 16.1948 45.703 16.1222C43.0548 16.2228 41.4938 13.9518 38.7564 15.8305Z" fill="#5A4146"/>
<path d="M37.3689 21.3087L38.0205 23.3173C38.0977 23.5553 38.3751 23.7223 38.6934 23.7223C39.0432 23.7223 39.3382 23.5216 39.3817 23.254L39.7148 21.1996C39.8039 20.6502 39.2481 20.165 38.5298 20.165H38.5274C37.7507 20.1649 37.1804 20.7277 37.3689 21.3087Z" fill="#E6AF78"/>
<path d="M27.7666 0.00689697C12.9928 0.00689697 14.631 18.026 14.6985 31.0837C14.701 31.5768 14.9585 32.0215 15.3797 32.276C17.0168 33.2659 21.5128 35.58 27.7666 35.58C34.0203 35.58 38.5163 33.2659 40.1534 32.276C40.5745 32.0214 40.8321 31.5768 40.8346 31.0837C40.9021 18.0259 42.5403 0.00689697 27.7666 0.00689697Z" fill="#694B4B"/>
<path d="M26.7087 0.00689697C13.0869 0.780297 14.6313 18.2985 14.6968 31.079C14.6993 31.5726 14.9546 32.0178 15.3722 32.2726C16.9952 33.2634 21.4525 35.58 27.6525 35.58L31.3538 9.34081" fill="#5A4146"/>
<path d="M27.4203 0.00689697C18.799 0.00689697 18.2003 10.1874 18.2003 10.1874C23.1695 9.36828 26.2229 11.416 31.2521 9.36829L27.4203 35.58C33.8387 35.58 38.4529 33.2659 40.1331 32.2761C40.5652 32.0214 40.8296 31.5768 40.8322 31.0837C40.9015 18.0258 42.5828 0.00689697 27.4203 0.00689697Z" fill="#694B4B"/>
<path d="M40.845 31.7136C40.8967 20.3211 41.9745 5.21992 33.913 1.19263C33.7724 2.0261 33.5178 4.35273 34.1795 5.86291C35.8457 9.66492 37.5118 9.66492 39.1779 12.5165C40.844 22.972 35.9944 34.0694 34.3837 35.58C37.2375 34.8055 39.2833 33.5801 40.2368 32.9243C40.6128 32.6657 40.8427 32.2143 40.845 31.7136Z" fill="#785550"/>
<path d="M41.6235 34.6242L33.4641 31.2026C32.7826 30.9169 32.3387 30.2467 32.3387 29.5035V27.2795H23.1946V29.5035C23.1946 30.2466 22.7507 30.9168 22.0692 31.2026L13.9098 34.6242C12.8876 35.0529 12.2217 36.0582 12.2217 37.1728V40.8539C12.2217 41.8704 13.0405 42.6946 14.0505 42.6946H41.4827C42.4927 42.6946 43.3115 41.8705 43.3115 40.8539V37.1728C43.3116 36.0581 42.6457 35.0529 41.6235 34.6242Z" fill="#E6AF78"/>
<path d="M41.6235 34.2845L33.7344 30.8369L27.7667 33.5382L21.7989 30.8369L13.9098 34.2845C12.8876 34.7311 12.2217 35.7788 12.2217 36.9403V40.7765C12.2217 41.8357 13.0405 42.6946 14.0505 42.6946H41.4827C42.4927 42.6946 43.3115 41.8358 43.3115 40.7765V36.9403C43.3116 35.7786 42.6457 34.7311 41.6235 34.2845Z" fill="#AB2071"/>
<path d="M32.5496 27.2795H23.0777V29.389C23.0777 30.0938 22.6179 30.7296 21.912 31.0007L20.5919 31.5077C30.6934 33.8812 32.5496 27.2795 32.5496 27.2795Z" fill="#D29B6E"/>
<path d="M27.7832 40.6652C27.2598 40.6652 26.8354 40.2444 26.8354 39.7253V33.5739H28.731V39.7254C28.731 40.2445 28.3066 40.6652 27.7832 40.6652Z" fill="#F948B4"/>
<path d="M27.7832 33.5718L22.3586 29.5373C22.0104 29.2783 21.5142 29.3626 21.2728 29.7217L20.2009 31.3161L23.5267 35.9331C23.7795 36.2842 24.2777 36.3527 24.6173 36.0832L27.7832 33.5718Z" fill="#F948B4"/>
<path d="M27.7832 33.5717L33.2078 29.5372C33.556 29.2782 34.0523 29.3625 34.2937 29.7216L35.3655 31.316L32.0397 35.933C31.787 36.2841 31.2887 36.3526 30.9491 36.0831L27.7832 33.5717Z" fill="#F948B4"/>
<path d="M32.5324 8.30719C27.6946 12.9803 18.2003 9.24179 18.2003 16.7188L18.8012 22.2265C18.917 23.4585 19.6566 24.5554 20.776 25.1561L26.285 28.1124C27.1618 28.5829 28.2277 28.5829 29.1044 28.1124L34.6135 25.1561C35.7329 24.5552 36.4723 23.4584 36.5883 22.2265L37.2818 15.6853C37.3312 15.2204 37.3417 14.7527 37.3254 14.286C36.9631 11.9069 33.5 10.1764 32.5324 8.30719Z" fill="#FFC89F"/>
<path d="M18.2003 16.724L18.8293 22.235C18.9505 23.4678 19.7246 24.5653 20.8964 25.1664L26.663 28.1245C27.2998 28.4511 28.03 28.5358 28.7251 28.4092C28.7251 28.4092 25.8177 27.5957 24.0874 23.2704C23.5574 21.9453 22.8214 14.9315 23.4544 14.0743C24.7056 12.3798 31.6834 12.2038 33.7452 9.06046C33.6433 8.94375 33.5493 8.82693 33.4634 8.7098C33.4564 8.70036 33.4481 8.69082 33.4412 8.68139C33.3517 8.55715 33.2704 8.43249 33.2026 8.30719C28.1384 12.9832 18.2003 9.24236 18.2003 16.724Z" fill="#F7B081"/>
<path d="M35.3397 40.323H32.1509C31.7107 40.323 31.3538 40.8539 31.3538 41.5088V42.6945H36.1368V41.5088C36.1368 40.8539 35.7799 40.323 35.3397 40.323Z" fill="#F948B4"/>
</svg>
