<svg width="51" height="51" viewBox="0 0 51 51" fill="none" xmlns="http://www.w3.org/2000/svg">
<g clip-path="url(#clip0)">
<path d="M25.7666 0.974121C18.1204 8.94193 5.41907 7.14295 5.41907 7.14295V28.7338C5.41907 41.4571 25.7666 50.3247 25.7666 50.3247C25.7666 50.3247 46.1141 41.4571 46.1141 28.7338V7.14295C46.1141 7.14295 33.4127 8.94193 25.7666 0.974121Z" fill="#AB2071"/>
<path d="M25.7661 6.16895C19.8625 12.4596 10.0508 11.0414 10.0508 11.0414V28.0866C10.0508 38.1298 25.7661 45.13 25.7661 45.13C25.7661 45.13 41.4823 38.129 41.4823 28.0848V11.0397C41.4823 11.0397 31.6697 12.4596 25.7661 6.16895Z" fill="#F948B4"/>
<g opacity="0.25">
<path opacity="0.25" d="M22.4585 24.4481H20.8722V25.0773H22.4585V24.4481Z" fill="#415E72"/>
</g>
<g opacity="0.25">
<path opacity="0.25" d="M30.6577 24.4481H29.0714V25.0773H30.6577V24.4481Z" fill="#415E72"/>
</g>
<path d="M31.2384 25.6455H29.5757V19.7056C29.5765 17.807 28.0246 16.2664 26.11 16.2656C24.1954 16.2648 22.6418 17.8037 22.641 19.7023C22.641 19.7032 22.641 19.7048 22.641 19.7056V25.6455H20.9783V19.7056C21.0141 16.8961 23.3395 14.6475 26.1727 14.683C28.9554 14.7178 31.2026 16.9462 31.2376 19.7056L31.2384 25.6455Z" fill="white"/>
<path d="M32.7756 24.5665H19.4402V32.9635H32.7756V24.5665Z" fill="#E6F7FE"/>
<path d="M33.5435 32.9628H18.6725V35.7109H33.5435V32.9628Z" fill="#E6F7FE"/>
<path d="M26.1084 30.732C27.2586 30.732 28.1911 29.8074 28.1911 28.6668C28.1911 27.5261 27.2586 26.6015 26.1084 26.6015C24.9582 26.6015 24.0258 27.5261 24.0258 28.6668C24.0258 29.8074 24.9582 30.732 26.1084 30.732Z" fill="#F948B4"/>
<path d="M26.9971 29.7778H25.2206V33.5521H26.9971V29.7778Z" fill="#F948B4"/>
</g>
<defs>
<clipPath id="clip0">
<rect width="49.7665" height="49.3506" fill="white" transform="translate(0.883301 0.974121)"/>
</clipPath>
</defs>
</svg>
