<svg width="50" height="50" viewBox="0 0 50 50" fill="none" xmlns="http://www.w3.org/2000/svg">
<path d="M25 0C11.1909 0 0 11.1909 0 25C0 38.8091 11.1909 50 25 50C38.8091 50 50 38.8091 50 25C50 11.1909 38.8091 0 25 0ZM34.2717 26.7717L21.7717 39.2717C21.2795 39.7638 19.252 40.6496 18.2382 39.2717C17.4213 38.1594 17.2638 36.7126 18.2382 35.7382L28.9665 25.0098L18.2382 14.2815C17.2638 13.3071 17.2638 11.7224 18.2382 10.748C19.2126 9.77362 20.7972 9.77362 21.7717 10.748L34.2717 23.248C35.2461 24.2126 35.2461 25.7874 34.2717 26.7717Z" fill="white"/>
</svg>
