<svg width="45" height="45" viewBox="0 0 45 45" fill="none" xmlns="http://www.w3.org/2000/svg">
<path d="M30.6615 26.7093L10.3442 7.96633C9.9491 7.60435 9.33413 7.6277 8.96827 8.02276C8.60434 8.41782 8.6277 9.03279 9.02276 9.39672L29.3401 28.1377C29.527 28.3109 29.7644 28.3966 29.9999 28.3966C30.2626 28.3966 30.5234 28.2934 30.716 28.0833C31.0819 27.6882 31.0566 27.0732 30.6615 26.7093Z" fill="#EE4FAF"/>
<path d="M29.5775 16.2879C29.1981 15.9084 28.5811 15.9084 28.2016 16.2879L8.93518 35.5524C8.55569 35.9319 8.55569 36.5488 8.93518 36.9283C9.1259 37.1171 9.375 37.2124 9.6241 37.2124C9.8732 37.2124 10.1223 37.1171 10.3111 36.9283L29.5775 17.6638C29.957 17.2843 29.957 16.6674 29.5775 16.2879Z" fill="#EE4FAF"/>
<path d="M35.0442 19.2518L13.6311 7.43114C12.3778 6.74027 10.893 6.75973 9.66107 7.48952C8.49924 8.1765 7.80643 9.36946 7.80643 10.6811V34.3186C7.80643 35.6322 8.50119 36.8252 9.66301 37.5121C10.2955 37.8858 10.9942 38.0726 11.6948 38.0726C12.3584 38.0726 13.022 37.9053 13.6331 37.5666L35.0461 25.7499C36.2702 25.0726 37.0019 23.8582 37 22.4979C37 21.1395 36.2683 19.9271 35.0442 19.2518ZM34.5503 24.047L12.5395 36.0292C11.8954 36.3834 10.5 36 10.5 36C10.5 36 9.6009 35.1106 9.6009 34.484L9.5 10.5C9.5 9.87335 9.82695 9.32066 10.3952 8.98398C10.7222 8.79132 11.0822 8.69596 11.4422 8.69596C11.7828 8.69596 12.1234 8.78159 12.4367 8.95284L34.5522 20.9566C35.1439 21.2835 35.5 21.8615 35.5 22.4999C35.5 23.1382 35.1458 23.7181 34.5503 24.047Z" fill="#801E5A"/>
</svg>
