<svg xmlns="http://www.w3.org/2000/svg" viewBox="0 0 65.5 50.07"><defs><style>.cls-1{fill:#21365f;}</style></defs><g id="Layer_2" data-name="Layer 2"><g id="layer_1-2" data-name="layer 1"><path class="cls-1" d="M33.15,11.09S34.09-.45,47.81,0c0,0-4.84,5.7-3.23,12Z"/><path class="cls-1" d="M59.31,4.56C48,1.07,42.12,6.55,40.85,8A28.1,28.1,0,0,1,51,13.72C52.62,7.52,59.31,4.56,59.31,4.56Z"/><path class="cls-1" d="M6.61,20.73a6.62,6.62,0,0,1,0-13.23.75.75,0,0,1,0,1.5,5.12,5.12,0,0,0,0,10.23.75.75,0,0,1,0,1.5Z"/><path class="cls-1" d="M46.86,50.07H39.53a.74.74,0,0,1-.74-.66,8,8,0,0,0-16,0,.74.74,0,0,1-.74.66H13.47a.74.74,0,0,1-.69-.45L11.19,46a28.57,28.57,0,0,0-3.86-6.34A20.34,20.34,0,0,1,2.68,26.84C2.68,14,15.29,3.61,30.8,3.61c11.44,0,21.64,5.65,26,14.39a2.21,2.21,0,0,0,1.77,1.21l4.45.43h0a2.75,2.75,0,0,1,2.48,2.74v6.73a2.76,2.76,0,0,1-1.85,2.6l-5.08,1.75a2.2,2.2,0,0,0-1.3,1.18,22.31,22.31,0,0,1-3.66,5.78A43.68,43.68,0,0,0,48,48.84l-.44.83A.75.75,0,0,1,46.86,50.07Zm-6.68-1.5h6.23l.23-.43a45.62,45.62,0,0,1,5.84-8.71,20.55,20.55,0,0,0,3.41-5.38,3.72,3.72,0,0,1,2.19-2l5.08-1.75A1.26,1.26,0,0,0,64,29.11V22.38a1.24,1.24,0,0,0-1.13-1.24l-4.45-.44a3.7,3.7,0,0,1-3-2C51.35,10.43,41.67,5.11,30.8,5.11c-14.68,0-26.62,9.75-26.62,21.73A18.86,18.86,0,0,0,8.5,38.7a30,30,0,0,1,4.07,6.67L14,48.57h7.45a9.54,9.54,0,0,1,18.77,0Z"/><circle class="cls-1" cx="44.99" cy="17" r="3"/><path class="cls-1" d="M25.75,37A12.75,12.75,0,1,1,38.5,24.28,12.76,12.76,0,0,1,25.75,37Zm0-24A11.25,11.25,0,1,0,37,24.28,11.26,11.26,0,0,0,25.75,13Z"/><circle class="cls-1" cx="33.25" cy="24.28" r="1"/><circle class="cls-1" cx="18.25" cy="24.28" r="1"/><path class="cls-1" d="M25.76,31.38a4.24,4.24,0,0,1-4-2.5.76.76,0,0,1,1.39-.59,2.75,2.75,0,0,0,2.57,1.59,2.6,2.6,0,0,0,2.74-2.43C28.5,26.34,28,25,25.75,25c-3.13,0-4.25-2-4.25-3.93a4.1,4.1,0,0,1,4.25-3.92,4.22,4.22,0,0,1,3.95,2.5.75.75,0,0,1-1.38.58,2.76,2.76,0,0,0-2.57-1.58A2.6,2.6,0,0,0,23,21.1c0,1.11.48,2.43,2.75,2.43,3.13,0,4.25,2,4.25,3.92A4.1,4.1,0,0,1,25.76,31.38Z"/><path class="cls-1" d="M25.75,18.68a.75.75,0,0,1-.75-.75V16.18a.75.75,0,0,1,1.5,0v1.75A.76.76,0,0,1,25.75,18.68Z"/><path class="cls-1" d="M25.75,33.12a.74.74,0,0,1-.75-.75V30.63a.75.75,0,1,1,1.5,0v1.74A.75.75,0,0,1,25.75,33.12Z"/></g></g></svg>