<svg width="46" height="46" viewBox="0 0 46 46" fill="none" xmlns="http://www.w3.org/2000/svg">
<path d="M36.6883 19.1912L35.9386 19.211L35.9386 19.211L36.6883 19.1912ZM35.9381 17.9123L36.4121 17.3311L36.4121 17.3311L35.9381 17.9123ZM24.4587 8.54374L23.9844 9.12473L23.9845 9.12474L24.4587 8.54374ZM21.7821 8.54308L22.2564 9.12405L22.2564 9.12405L21.7821 8.54308ZM12.3383 16.2557L11.8636 15.675L11.8635 15.675L12.3383 16.2557ZM9.99999 18.2089L10.507 18.7615L10.507 18.7615L9.99999 18.2089ZM10.1926 20.4281L9.7676 21.046L9.76764 21.0461L10.1926 20.4281ZM11.4062 21.1301L11.0721 21.8016L11.0721 21.8016L11.4062 21.1301ZM11.7808 21.774L11.0308 21.7718L11.0308 21.7719L11.7808 21.774ZM11.7759 33.0417L11.0259 33.0425L11.0259 33.0426L11.7759 33.0417ZM11.8541 33.7223L11.1308 33.9206L11.1308 33.9207L11.8541 33.7223ZM13.6552 34.985L13.6546 35.735L13.6547 35.735L13.6552 34.985ZM32.5054 34.984L32.5048 34.234L32.5048 34.234L32.5054 34.984ZM33.1104 34.9363L33.2832 35.6661L33.2832 35.6661L33.1104 34.9363ZM34.4671 33.0976L35.2171 33.0978L35.2171 33.0978L34.4671 33.0976ZM34.4624 21.7238L33.7124 21.7253L33.7124 21.7254L34.4624 21.7238ZM34.7906 21.1579L34.4408 20.4945L34.4407 20.4945L34.7906 21.1579ZM36.1121 20.379L35.6873 19.7609L35.6873 19.7609L36.1121 20.379ZM37.4381 19.1715C37.4146 18.2795 36.8796 17.7123 36.4121 17.3311L35.4641 18.4935C35.8188 18.7828 35.9325 18.9807 35.9386 19.211L37.4381 19.1715ZM36.4121 17.3311C32.5847 14.2096 28.7592 11.0861 24.933 7.96273L23.9845 9.12474C27.8105 12.2479 31.6364 15.3718 35.4641 18.4935L36.4121 17.3311ZM24.933 7.96274C24.3955 7.52393 23.7803 7.264 23.121 7.26367C22.4615 7.26334 21.8459 7.52276 21.3078 7.96211L22.2564 9.12405C22.5837 8.85684 22.874 8.76355 23.1202 8.76367C23.3666 8.76379 23.6571 8.85747 23.9844 9.12473L24.933 7.96274ZM21.3078 7.96211C18.1596 10.5323 15.0103 13.1022 11.8636 15.675L12.813 16.8363C15.9593 14.2639 19.1079 11.6945 22.2564 9.12405L21.3078 7.96211ZM11.8635 15.675C11.097 16.3019 10.2615 16.9512 9.49299 17.6562L10.507 18.7615C11.2336 18.095 12.007 17.4954 12.8131 16.8363L11.8635 15.675ZM9.493 17.6562C8.41541 18.6447 8.61912 20.256 9.7676 21.046L10.6177 19.8102C10.2046 19.526 10.1917 19.0508 10.507 18.7615L9.493 17.6562ZM9.76764 21.0461C10.1894 21.3362 10.6337 21.5835 11.0721 21.8016L11.7402 20.4586C11.3429 20.261 10.9642 20.0485 10.6177 19.8101L9.76764 21.0461ZM11.0721 21.8016C11.1002 21.8156 11.1025 21.8203 11.0925 21.8116C11.0872 21.8069 11.0794 21.7994 11.0707 21.7887C11.0619 21.778 11.0536 21.7659 11.0464 21.753C11.0392 21.7402 11.0344 21.7287 11.0312 21.7199C11.0282 21.7112 11.0272 21.7063 11.0273 21.7065C11.0276 21.7082 11.0309 21.7268 11.0308 21.7718L12.5308 21.7762C12.5314 21.5562 12.5027 21.2846 12.3564 21.0223C12.204 20.7492 11.975 20.5754 11.7402 20.4586L11.0721 21.8016ZM11.0308 21.7719C11.0199 25.5293 11.0218 29.2864 11.0259 33.0425L12.5258 33.0409C12.5217 29.2852 12.5199 25.5305 12.5308 21.7762L11.0308 21.7719ZM11.0259 33.0426C11.0262 33.3038 11.0465 33.6129 11.1308 33.9206L12.5774 33.524C12.5423 33.3958 12.5261 33.2344 12.5258 33.0408L11.0259 33.0426ZM11.1308 33.9207C11.284 34.479 11.601 34.947 12.0622 35.2695C12.5181 35.5884 13.0706 35.7346 13.6546 35.735L13.6558 34.235C13.3188 34.2348 13.081 34.1516 12.9218 34.0403C12.7678 33.9326 12.6448 33.7696 12.5774 33.5239L11.1308 33.9207ZM13.6547 35.735C16.8011 35.7373 19.9479 35.7359 23.0936 35.7359V34.2359C19.947 34.2359 16.8015 34.2373 13.6557 34.235L13.6547 35.735ZM23.0936 35.7359C26.2306 35.7359 29.3684 35.7368 32.5061 35.734L32.5048 34.234C29.3679 34.2368 26.2312 34.2359 23.0936 34.2359V35.7359ZM32.5061 35.734C32.6956 35.7338 32.9903 35.7355 33.2832 35.6661L32.9376 34.2065C32.8412 34.2293 32.7193 34.2338 32.5048 34.234L32.5061 35.734ZM33.2832 35.6661C33.8705 35.527 34.3698 35.2163 34.7167 34.745C35.06 34.2786 35.2169 33.7059 35.2171 33.0978L33.7171 33.0973C33.717 33.4499 33.6276 33.6943 33.5086 33.8558C33.3932 34.0127 33.2143 34.141 32.9375 34.2065L33.2832 35.6661ZM35.2171 33.0978C35.2183 29.3069 35.2201 25.5147 35.2124 21.7223L33.7124 21.7254C33.7201 25.5156 33.7183 29.3058 33.7171 33.0974L35.2171 33.0978ZM35.2124 21.7223C35.2123 21.656 35.2234 21.6912 35.1874 21.7552C35.1697 21.7866 35.1494 21.8091 35.1347 21.8223C35.1219 21.8336 35.1199 21.8321 35.1404 21.8213L34.4407 20.4945C34.2326 20.6042 34.0229 20.7662 33.8805 21.0189C33.7418 21.265 33.712 21.5183 33.7124 21.7253L35.2124 21.7223ZM35.1404 21.8213C35.6014 21.5782 36.0805 21.3109 36.537 20.9971L35.6873 19.7609C35.3026 20.0254 34.8838 20.2609 34.4408 20.4945L35.1404 21.8213ZM36.5369 20.9971C37.1736 20.5595 37.4569 19.8853 37.4381 19.1715L35.9386 19.211C35.9457 19.4816 35.8547 19.6459 35.6873 19.7609L36.5369 20.9971Z" fill="#A50064"/>
<path d="M23.7911 29.3045L23.6608 28.8218L23.2911 28.9216V29.3045H23.7911ZM21.6323 29.4277H22.1323V28.9786L21.6859 28.9305L21.6323 29.4277ZM19.2253 28.604L18.9344 29.0107L18.9348 29.0109L19.2253 28.604ZM19.0315 27.9847L18.5608 27.8161L18.5608 27.8163L19.0315 27.9847ZM19.4439 26.8334L19.9146 27.002L19.9149 27.0011L19.4439 26.8334ZM19.7811 26.5033L19.6267 26.0277L19.622 26.0293L19.7811 26.5033ZM20.248 26.5662L19.9702 26.9818L19.9704 26.982L20.248 26.5662ZM22.3279 24.5183L22.5161 24.055L22.5105 24.0528L22.3279 24.5183ZM21.7519 17.8405L21.881 18.3236L22.2519 18.2245V17.8405H21.7519ZM23.8929 17.706H23.3929V18.1527L23.8368 18.2029L23.8929 17.706ZM25.8632 18.3436L26.1167 17.9127L26.1161 17.9123L25.8632 18.3436ZM26.0948 18.9979L26.5624 19.175L26.5631 19.1733L26.0948 18.9979ZM25.6647 20.1332L26.1315 20.3123L26.1323 20.3103L25.6647 20.1332ZM25.3435 20.449L25.5129 20.9194L25.513 20.9194L25.3435 20.449ZM24.8943 20.41L24.6454 20.8436L24.6485 20.8454L24.8943 20.41ZM23.509 22.3015L23.3179 22.7635L23.3202 22.7645L23.509 22.3015ZM26.5086 25.9477L27.0086 25.9477L27.0086 25.9474L26.5086 25.9477ZM23.2911 29.3045V30.6609H24.2911V29.3045H23.2911ZM23.2911 30.6609C23.2911 30.682 23.2746 30.6984 23.2536 30.6984V31.6984C23.8275 31.6984 24.2911 31.2337 24.2911 30.6609H23.2911ZM23.2536 30.6984H22.1698V31.6984H23.2536V30.6984ZM22.1698 30.6984C22.149 30.6984 22.1323 30.6817 22.1323 30.6609H21.1323C21.1323 31.2339 21.5967 31.6984 22.1698 31.6984V30.6984ZM22.1323 30.6609V29.4277H21.1323V30.6609H22.1323ZM21.6859 28.9305C20.8318 28.8386 20.016 28.5541 19.5158 28.197L18.9348 29.0109C19.6116 29.4941 20.6053 29.8199 21.5788 29.9248L21.6859 28.9305ZM19.5162 28.1973C19.502 28.1872 19.4965 28.1693 19.5023 28.1532L18.5608 27.8163C18.4042 28.254 18.5576 28.7411 18.9344 29.0107L19.5162 28.1973ZM19.5023 28.1533L19.9146 27.002L18.9732 26.6648L18.5608 27.8161L19.5023 28.1533ZM19.9149 27.0011C19.9186 26.9909 19.9269 26.9817 19.9402 26.9773L19.622 26.0293C19.3212 26.1302 19.0807 26.3629 18.9729 26.6657L19.9149 27.0011ZM19.9354 26.9789C19.9509 26.9738 19.9635 26.9774 19.9702 26.9818L20.5259 26.1505C20.2575 25.9711 19.9252 25.9308 19.6267 26.0277L19.9354 26.9789ZM19.9704 26.982C20.6653 27.446 21.5774 27.715 22.4275 27.715V26.715C21.7677 26.715 21.0502 26.5006 20.5257 26.1503L19.9704 26.982ZM22.4275 27.715C22.9587 27.715 23.4508 27.5796 23.823 27.2963C24.2059 27.0049 24.4361 26.5735 24.4361 26.0672H23.4361C23.4361 26.2472 23.3632 26.3896 23.2174 26.5006C23.0609 26.6197 22.7986 26.715 22.4275 26.715V27.715ZM24.4361 26.0672C24.4361 25.7437 24.3615 25.373 24.0381 25.0039C23.7378 24.6612 23.2523 24.3541 22.5161 24.055L22.1397 24.9815C22.8168 25.2566 23.1354 25.4911 23.2859 25.6629C23.4134 25.8083 23.4361 25.925 23.4361 26.0672H24.4361ZM22.5105 24.0528C21.7398 23.7505 21.0178 23.3999 20.4907 22.9183C19.9817 22.4531 19.6541 21.8668 19.6541 21.0445H18.6541C18.6541 22.1861 19.13 23.0294 19.8161 23.6564C20.4843 24.2671 21.3493 24.6715 22.1453 24.9837L22.5105 24.0528ZM19.6541 21.0445C19.6541 19.7345 20.4831 18.697 21.881 18.3236L21.6229 17.3575C19.835 17.835 18.6541 19.2342 18.6541 21.0445H19.6541ZM22.2519 17.8405V16.5375H21.2519V17.8405H22.2519ZM22.2519 16.5375C22.2519 16.5168 22.2687 16.5 22.2894 16.5V15.5C21.7165 15.5 21.2519 15.9643 21.2519 16.5375H22.2519ZM22.2894 16.5H23.3554V15.5H22.2894V16.5ZM23.3554 16.5C23.3765 16.5 23.3929 16.5164 23.3929 16.5375H24.3929C24.3929 15.9648 23.9294 15.5 23.3554 15.5V16.5ZM23.3929 16.5375V17.706H24.3929V16.5375H23.3929ZM23.8368 18.2029C24.5078 18.2787 25.0882 18.4688 25.6103 18.7749L26.1161 17.9123C25.4638 17.5298 24.7475 17.2994 23.9491 17.2092L23.8368 18.2029ZM25.6097 18.7746C25.6261 18.7842 25.6333 18.8046 25.6266 18.8224L26.5631 19.1733C26.7402 18.7005 26.5518 18.1686 26.1167 17.9127L25.6097 18.7746ZM25.6273 18.8207L25.1971 19.956L26.1323 20.3103L26.5624 19.175L25.6273 18.8207ZM25.1979 19.9541C25.1928 19.9672 25.1835 19.9752 25.174 19.9786L25.513 20.9194C25.7997 20.8161 26.0238 20.5931 26.1315 20.3123L25.1979 19.9541ZM25.1741 19.9786C25.1652 19.9818 25.1531 19.9819 25.1402 19.9746L24.6485 20.8454C24.9105 20.9933 25.2255 21.023 25.5129 20.9194L25.1741 19.9786ZM25.1433 19.9764C24.8479 19.8068 24.1275 19.3963 22.9934 19.3963V20.3963C23.867 20.3963 24.404 20.705 24.6454 20.8436L25.1433 19.9764ZM22.9934 19.3963C22.4369 19.3963 21.9846 19.5396 21.6647 19.8209C21.3412 20.1055 21.2075 20.4843 21.2075 20.8378H22.2075C22.2075 20.7363 22.2428 20.6443 22.3252 20.5718C22.4112 20.4961 22.6018 20.3963 22.9934 20.3963V19.3963ZM21.2075 20.8378C21.2075 21.0069 21.2298 21.1943 21.3143 21.3872C21.3987 21.5801 21.5307 21.7452 21.7022 21.8943C22.0272 22.1769 22.546 22.4442 23.3179 22.7635L23.7001 21.8394C22.9307 21.5212 22.5487 21.3052 22.3584 21.1397C22.2722 21.0648 22.2428 21.0146 22.2303 20.9861C22.2178 20.9576 22.2075 20.9173 22.2075 20.8378H21.2075ZM23.3202 22.7645C23.9998 23.0416 24.675 23.386 25.179 23.8869C25.6673 24.3723 26.0081 25.0168 26.0086 25.948L27.0086 25.9474C27.0079 24.7303 26.5464 23.8362 25.8839 23.1777C25.2371 22.5348 24.4131 22.1302 23.6978 21.8385L23.3202 22.7645ZM26.0086 25.9477C26.0086 27.309 25.1097 28.4309 23.6608 28.8218L23.9213 29.7873C25.7576 29.2918 27.0086 27.8098 27.0086 25.9477H26.0086Z" fill="#F45197"/>
</svg>
