<svg width="45" height="45" viewBox="0 0 45 45" fill="none" xmlns="http://www.w3.org/2000/svg">
<rect x="6.75" y="6.75" width="30.5" height="30.5" rx="2.18333" stroke="#801E5A" stroke-width="1.5"/>
<mask id="path-2-outside-1" maskUnits="userSpaceOnUse" x="9.00002" y="11.3202" width="26" height="21" fill="black">
<rect fill="white" x="9.00002" y="11.3202" width="26" height="21"/>
<path d="M10.3637 24.7119H13.9302L12.3593 27.4842C12.3491 27.5031 12.3593 27.522 12.352 27.5424C12.3462 27.557 12.3258 27.5613 12.3215 27.5773L11.4953 30.9751C11.4589 31.1308 11.5258 31.2937 11.6655 31.3751C11.7222 31.4086 11.7862 31.4246 11.8487 31.4246C11.9389 31.4246 12.0276 31.3911 12.0975 31.3271L14.6604 28.9315C14.6749 28.9184 14.6807 28.8981 14.6924 28.8821C14.7026 28.869 14.7171 28.8646 14.7258 28.8501L17.1593 24.7119H26.8131L28.2022 27.1177C28.2502 27.2006 28.3302 27.2617 28.4233 27.2864C28.4335 27.2893 28.4451 27.2893 28.4553 27.2908C28.4204 27.5148 28.4146 27.7504 28.4713 27.9991C28.6371 28.738 29.7193 29.7693 30.6255 30.2697C31.1331 30.5504 31.2218 30.994 31.2844 31.3155L31.3135 31.4479C31.344 31.5875 31.4531 31.6966 31.5927 31.7257C31.6175 31.73 31.6422 31.733 31.6684 31.733C31.7818 31.733 31.8909 31.6791 31.9607 31.5846C32.2604 31.1788 32.5411 29.7344 32.5062 29.2646C32.5091 26.8777 31.5215 26.2144 30.7724 25.925C30.7942 25.8362 30.7869 25.7388 30.7375 25.6544L30.1935 24.7119H33.6364C33.8371 24.7119 34 24.549 34 24.3482V22.2639C34 22.0631 33.8371 21.9002 33.6364 21.9002H28.5746L23.4182 12.9722C23.0691 12.3657 22.24 12.133 21.6218 12.4864L21.3615 12.6377C21.0575 12.8137 20.8407 13.0959 20.7506 13.4348C20.6604 13.7751 20.7084 14.1315 20.8844 14.437L25.1927 21.9002H18.8146L20.8218 18.4879V18.4864H20.8233L21.3949 17.4959C21.7571 16.8661 21.5447 16.0602 20.9193 15.6981L20.656 15.5453C20.0422 15.1948 19.2102 15.4275 18.8611 16.0326L18.288 17.0217V17.0231C18.288 17.0246 18.2866 17.0246 18.2866 17.0246L15.5229 21.9002H10.3637C10.1629 21.9002 10 22.0631 10 22.2639V24.3482C10 24.549 10.1629 24.7119 10.3637 24.7119ZM12.4902 29.9642L12.9149 28.2202L13.8051 28.7351L12.4902 29.9642ZM30.2575 26.5606C30.352 26.5606 30.4364 26.5737 30.5047 26.5999C30.9207 26.7584 31.7847 27.0915 31.7833 29.2908C31.7978 29.493 31.7396 29.8813 31.6582 30.2537C31.5098 30.0282 31.296 29.8071 30.9804 29.634C30.1222 29.1613 29.2756 28.2537 29.184 27.8421C29.0924 27.4319 29.1884 27.1002 29.4691 26.8573C29.7033 26.6537 30.0116 26.5606 30.2575 26.5606ZM33.2727 22.6275V23.9846H29.7775L29.6902 23.8333L28.9935 22.6275H33.2727ZM29.2407 24.5126L29.3556 24.7119L29.9273 25.7039L28.6516 26.4399L27.9636 25.2486L28.8946 24.7119L29.2407 24.5126ZM21.5127 14.0733C21.4327 13.9351 21.4124 13.7751 21.4516 13.6224C21.4924 13.4726 21.5898 13.3475 21.7251 13.2675L21.984 13.1162C22.0742 13.0653 22.1746 13.0377 22.2735 13.0377C22.4844 13.0377 22.6807 13.1526 22.7884 13.3373L27.7324 21.9017L28.1527 22.629L28.8771 23.8842L28.7011 23.9861L27.6015 24.6202L27.2349 23.9861L26.4524 22.629L26.032 21.9017L21.5127 14.0733ZM25.6116 22.6275L26.3942 23.9846H17.5869L18.3855 22.6275H25.6116ZM19.4895 16.3948C19.6436 16.1271 20.0218 16.0195 20.2895 16.1737L20.5513 16.325C20.5527 16.325 20.5527 16.325 20.5527 16.325C20.8306 16.485 20.9266 16.8471 20.7636 17.1293L20.3738 17.8042L19.7367 17.4362L19.0996 17.0682L19.4895 16.3948ZM15.9476 22.6275L16.3593 21.9002L18.7389 17.701L19.3731 18.0675L20.0073 18.4341L17.968 21.9002L17.5404 22.6275L16.7418 23.9846L16.3142 24.7119L14.2807 28.1693L13.1709 27.5279L14.7666 24.7104L15.1782 23.9831L15.9476 22.6275ZM10.7273 22.6275H15.1113L14.3433 23.9846H10.7273V22.6275Z"/>
</mask>
<path d="M10.3637 24.7119H13.9302L12.3593 27.4842C12.3491 27.5031 12.3593 27.522 12.352 27.5424C12.3462 27.557 12.3258 27.5613 12.3215 27.5773L11.4953 30.9751C11.4589 31.1308 11.5258 31.2937 11.6655 31.3751C11.7222 31.4086 11.7862 31.4246 11.8487 31.4246C11.9389 31.4246 12.0276 31.3911 12.0975 31.3271L14.6604 28.9315C14.6749 28.9184 14.6807 28.8981 14.6924 28.8821C14.7026 28.869 14.7171 28.8646 14.7258 28.8501L17.1593 24.7119H26.8131L28.2022 27.1177C28.2502 27.2006 28.3302 27.2617 28.4233 27.2864C28.4335 27.2893 28.4451 27.2893 28.4553 27.2908C28.4204 27.5148 28.4146 27.7504 28.4713 27.9991C28.6371 28.738 29.7193 29.7693 30.6255 30.2697C31.1331 30.5504 31.2218 30.994 31.2844 31.3155L31.3135 31.4479C31.344 31.5875 31.4531 31.6966 31.5927 31.7257C31.6175 31.73 31.6422 31.733 31.6684 31.733C31.7818 31.733 31.8909 31.6791 31.9607 31.5846C32.2604 31.1788 32.5411 29.7344 32.5062 29.2646C32.5091 26.8777 31.5215 26.2144 30.7724 25.925C30.7942 25.8362 30.7869 25.7388 30.7375 25.6544L30.1935 24.7119H33.6364C33.8371 24.7119 34 24.549 34 24.3482V22.2639C34 22.0631 33.8371 21.9002 33.6364 21.9002H28.5746L23.4182 12.9722C23.0691 12.3657 22.24 12.133 21.6218 12.4864L21.3615 12.6377C21.0575 12.8137 20.8407 13.0959 20.7506 13.4348C20.6604 13.7751 20.7084 14.1315 20.8844 14.437L25.1927 21.9002H18.8146L20.8218 18.4879V18.4864H20.8233L21.3949 17.4959C21.7571 16.8661 21.5447 16.0602 20.9193 15.6981L20.656 15.5453C20.0422 15.1948 19.2102 15.4275 18.8611 16.0326L18.288 17.0217V17.0231C18.288 17.0246 18.2866 17.0246 18.2866 17.0246L15.5229 21.9002H10.3637C10.1629 21.9002 10 22.0631 10 22.2639V24.3482C10 24.549 10.1629 24.7119 10.3637 24.7119ZM12.4902 29.9642L12.9149 28.2202L13.8051 28.7351L12.4902 29.9642ZM30.2575 26.5606C30.352 26.5606 30.4364 26.5737 30.5047 26.5999C30.9207 26.7584 31.7847 27.0915 31.7833 29.2908C31.7978 29.493 31.7396 29.8813 31.6582 30.2537C31.5098 30.0282 31.296 29.8071 30.9804 29.634C30.1222 29.1613 29.2756 28.2537 29.184 27.8421C29.0924 27.4319 29.1884 27.1002 29.4691 26.8573C29.7033 26.6537 30.0116 26.5606 30.2575 26.5606ZM33.2727 22.6275V23.9846H29.7775L29.6902 23.8333L28.9935 22.6275H33.2727ZM29.2407 24.5126L29.3556 24.7119L29.9273 25.7039L28.6516 26.4399L27.9636 25.2486L28.8946 24.7119L29.2407 24.5126ZM21.5127 14.0733C21.4327 13.9351 21.4124 13.7751 21.4516 13.6224C21.4924 13.4726 21.5898 13.3475 21.7251 13.2675L21.984 13.1162C22.0742 13.0653 22.1746 13.0377 22.2735 13.0377C22.4844 13.0377 22.6807 13.1526 22.7884 13.3373L27.7324 21.9017L28.1527 22.629L28.8771 23.8842L28.7011 23.9861L27.6015 24.6202L27.2349 23.9861L26.4524 22.629L26.032 21.9017L21.5127 14.0733ZM25.6116 22.6275L26.3942 23.9846H17.5869L18.3855 22.6275H25.6116ZM19.4895 16.3948C19.6436 16.1271 20.0218 16.0195 20.2895 16.1737L20.5513 16.325C20.5527 16.325 20.5527 16.325 20.5527 16.325C20.8306 16.485 20.9266 16.8471 20.7636 17.1293L20.3738 17.8042L19.7367 17.4362L19.0996 17.0682L19.4895 16.3948ZM15.9476 22.6275L16.3593 21.9002L18.7389 17.701L19.3731 18.0675L20.0073 18.4341L17.968 21.9002L17.5404 22.6275L16.7418 23.9846L16.3142 24.7119L14.2807 28.1693L13.1709 27.5279L14.7666 24.7104L15.1782 23.9831L15.9476 22.6275ZM10.7273 22.6275H15.1113L14.3433 23.9846H10.7273V22.6275Z" fill="#EE4FAF"/>
<path d="M10.3637 24.7119H13.9302L12.3593 27.4842C12.3491 27.5031 12.3593 27.522 12.352 27.5424C12.3462 27.557 12.3258 27.5613 12.3215 27.5773L11.4953 30.9751C11.4589 31.1308 11.5258 31.2937 11.6655 31.3751C11.7222 31.4086 11.7862 31.4246 11.8487 31.4246C11.9389 31.4246 12.0276 31.3911 12.0975 31.3271L14.6604 28.9315C14.6749 28.9184 14.6807 28.8981 14.6924 28.8821C14.7026 28.869 14.7171 28.8646 14.7258 28.8501L17.1593 24.7119H26.8131L28.2022 27.1177C28.2502 27.2006 28.3302 27.2617 28.4233 27.2864C28.4335 27.2893 28.4451 27.2893 28.4553 27.2908C28.4204 27.5148 28.4146 27.7504 28.4713 27.9991C28.6371 28.738 29.7193 29.7693 30.6255 30.2697C31.1331 30.5504 31.2218 30.994 31.2844 31.3155L31.3135 31.4479C31.344 31.5875 31.4531 31.6966 31.5927 31.7257C31.6175 31.73 31.6422 31.733 31.6684 31.733C31.7818 31.733 31.8909 31.6791 31.9607 31.5846C32.2604 31.1788 32.5411 29.7344 32.5062 29.2646C32.5091 26.8777 31.5215 26.2144 30.7724 25.925C30.7942 25.8362 30.7869 25.7388 30.7375 25.6544L30.1935 24.7119H33.6364C33.8371 24.7119 34 24.549 34 24.3482V22.2639C34 22.0631 33.8371 21.9002 33.6364 21.9002H28.5746L23.4182 12.9722C23.0691 12.3657 22.24 12.133 21.6218 12.4864L21.3615 12.6377C21.0575 12.8137 20.8407 13.0959 20.7506 13.4348C20.6604 13.7751 20.7084 14.1315 20.8844 14.437L25.1927 21.9002H18.8146L20.8218 18.4879V18.4864H20.8233L21.3949 17.4959C21.7571 16.8661 21.5447 16.0602 20.9193 15.6981L20.656 15.5453C20.0422 15.1948 19.2102 15.4275 18.8611 16.0326L18.288 17.0217V17.0231C18.288 17.0246 18.2866 17.0246 18.2866 17.0246L15.5229 21.9002H10.3637C10.1629 21.9002 10 22.0631 10 22.2639V24.3482C10 24.549 10.1629 24.7119 10.3637 24.7119ZM12.4902 29.9642L12.9149 28.2202L13.8051 28.7351L12.4902 29.9642ZM30.2575 26.5606C30.352 26.5606 30.4364 26.5737 30.5047 26.5999C30.9207 26.7584 31.7847 27.0915 31.7833 29.2908C31.7978 29.493 31.7396 29.8813 31.6582 30.2537C31.5098 30.0282 31.296 29.8071 30.9804 29.634C30.1222 29.1613 29.2756 28.2537 29.184 27.8421C29.0924 27.4319 29.1884 27.1002 29.4691 26.8573C29.7033 26.6537 30.0116 26.5606 30.2575 26.5606ZM33.2727 22.6275V23.9846H29.7775L29.6902 23.8333L28.9935 22.6275H33.2727ZM29.2407 24.5126L29.3556 24.7119L29.9273 25.7039L28.6516 26.4399L27.9636 25.2486L28.8946 24.7119L29.2407 24.5126ZM21.5127 14.0733C21.4327 13.9351 21.4124 13.7751 21.4516 13.6224C21.4924 13.4726 21.5898 13.3475 21.7251 13.2675L21.984 13.1162C22.0742 13.0653 22.1746 13.0377 22.2735 13.0377C22.4844 13.0377 22.6807 13.1526 22.7884 13.3373L27.7324 21.9017L28.1527 22.629L28.8771 23.8842L28.7011 23.9861L27.6015 24.6202L27.2349 23.9861L26.4524 22.629L26.032 21.9017L21.5127 14.0733ZM25.6116 22.6275L26.3942 23.9846H17.5869L18.3855 22.6275H25.6116ZM19.4895 16.3948C19.6436 16.1271 20.0218 16.0195 20.2895 16.1737L20.5513 16.325C20.5527 16.325 20.5527 16.325 20.5527 16.325C20.8306 16.485 20.9266 16.8471 20.7636 17.1293L20.3738 17.8042L19.7367 17.4362L19.0996 17.0682L19.4895 16.3948ZM15.9476 22.6275L16.3593 21.9002L18.7389 17.701L19.3731 18.0675L20.0073 18.4341L17.968 21.9002L17.5404 22.6275L16.7418 23.9846L16.3142 24.7119L14.2807 28.1693L13.1709 27.5279L14.7666 24.7104L15.1782 23.9831L15.9476 22.6275ZM10.7273 22.6275H15.1113L14.3433 23.9846H10.7273V22.6275Z" stroke="#EE4FAF" stroke-width="0.6" mask="url(#path-2-outside-1)"/>
</svg>
